<svg width="50" height="50" viewBox="0 0 50 50" fill="none" xmlns="http://www.w3.org/2000/svg">
<path d="M8.79626 25H11.1111V27.381H8.79626V25Z" fill="white"/>
<path d="M13.4259 32.1429V29.7618H8.79626V32.1429H13.4259Z" fill="white"/>
<path d="M15.7407 25H13.4259V27.381H15.7407V25Z" fill="white"/>
<path d="M18.0555 29.7618H15.7407V32.1429H18.0555V29.7618Z" fill="white"/>
<path d="M11.1111 34.5238H8.79626V36.9048H11.1111V34.5238Z" fill="white"/>
<path d="M15.7407 34.5238H13.4259V36.9048H15.7407V34.5238Z" fill="white"/>
<path d="M36.5742 34.5238H34.2592V36.9048H36.5742V34.5238Z" fill="white"/>
<path d="M41.2037 34.5238H38.8889V36.9048H41.2037V34.5238Z" fill="white"/>
<path d="M31.9444 36.9048V34.5238H18.0555V36.9048H31.9444Z" fill="white"/>
<path d="M22.6852 29.7618H20.3704V32.1429H22.6852V29.7618Z" fill="white"/>
<path d="M27.3148 29.7618H25V32.1429H27.3148V29.7618Z" fill="white"/>
<path d="M31.9444 29.7618H29.6296V32.1429H31.9444V29.7618Z" fill="white"/>
<path d="M41.2037 29.7618H34.2592V32.1429H41.2037V29.7618Z" fill="white"/>
<path d="M20.3704 25H18.0555V27.381H20.3704V25Z" fill="white"/>
<path d="M25 25H22.6852V27.381H25V25Z" fill="white"/>
<path d="M29.6296 25H27.3148V27.381H29.6296V25Z" fill="white"/>
<path d="M34.2591 25H31.9443V27.381H34.2591V25Z" fill="white"/>
<path d="M41.2038 25H36.5742V27.381H41.2038V25Z" fill="white"/>
<path fill-rule="evenodd" clip-rule="evenodd" d="M27.3148 8.33337H29.6295V13.0953C29.6295 14.4102 28.5933 15.4762 27.3148 15.4762H18.0555V20.2381H43.5185C44.7968 20.2381 45.8333 21.3042 45.8333 22.619V39.2857C45.8333 40.6007 44.7968 41.6667 43.5185 41.6667H6.48144C5.203 41.6667 4.16663 40.6007 4.16663 39.2857V22.619C4.16663 21.3042 5.203 20.2381 6.48144 20.2381H15.7407V15.4762C15.7407 14.1613 16.7771 13.0953 18.0555 13.0953H27.3148V8.33337ZM6.48144 22.619H43.5185V39.2857H6.48144V22.619Z" fill="white"/>
</svg>
